<svg width="129" height="38" viewBox="0 0 129 38" fill="none" xmlns="http://www.w3.org/2000/svg">
<rect width="129" height="38" rx="8" fill="#1E1E1E"/>
<g clip-path="url(#clip0_2207_10010)">
<path d="M24.0208 22.078L26.8762 24.9326L25.9328 25.876L23.0782 23.0206C22.016 23.8721 20.6948 24.3352 19.3335 24.3333C16.0215 24.3333 13.3335 21.6453 13.3335 18.3333C13.3335 15.0213 16.0215 12.3333 19.3335 12.3333C22.6455 12.3333 25.3335 15.0213 25.3335 18.3333C25.3354 19.6946 24.8723 21.0158 24.0208 22.078ZM22.6835 21.5833C23.5296 20.7132 24.0021 19.5469 24.0002 18.3333C24.0002 15.7546 21.9115 13.6666 19.3335 13.6666C16.7548 13.6666 14.6668 15.7546 14.6668 18.3333C14.6668 20.9113 16.7548 23 19.3335 23C20.5471 23.0019 21.7134 22.5294 22.5835 21.6833L22.6835 21.5833Z" fill="#AACA0E"/>
</g>
<path d="M36.3694 24.224C35.9001 24.224 35.4521 24.1707 35.0254 24.064C34.6094 23.968 34.2361 23.8507 33.9054 23.712C33.5748 23.5733 33.3134 23.456 33.1214 23.36C32.9294 23.2533 32.8334 23.2 32.8334 23.2C32.8334 23.2 32.8601 23.136 32.9134 23.008C32.9668 22.8693 33.0254 22.7093 33.0894 22.528C33.1641 22.3467 33.2281 22.192 33.2814 22.064C33.3348 21.9253 33.3614 21.856 33.3614 21.856C33.3614 21.856 33.4521 21.904 33.6334 22C33.8254 22.0853 34.0761 22.1813 34.3854 22.288C34.7054 22.3947 35.0628 22.4907 35.4574 22.576C35.8628 22.6613 36.2734 22.704 36.6894 22.704C36.9348 22.704 37.1268 22.6827 37.2654 22.64C37.4148 22.5973 37.5214 22.5547 37.5854 22.512C37.7668 22.384 37.9054 22.208 38.0014 21.984C38.1081 21.7493 38.1614 21.44 38.1614 21.056C38.1614 20.6933 38.0708 20.3893 37.8894 20.144C37.7081 19.8987 37.4681 19.6907 37.1694 19.52C36.8708 19.3493 36.5454 19.184 36.1934 19.024C35.7881 18.8533 35.4041 18.6773 35.0414 18.496C34.6788 18.3147 34.3534 18.1067 34.0654 17.872C33.7881 17.6373 33.5641 17.3387 33.3934 16.976C33.2334 16.6133 33.1534 16.1653 33.1534 15.632C33.1534 15.0667 33.2814 14.56 33.5374 14.112C33.8041 13.6533 34.1934 13.2907 34.7054 13.024C35.2281 12.7573 35.8788 12.624 36.6574 12.624C37.0094 12.624 37.3508 12.6453 37.6814 12.688C38.0228 12.7307 38.3268 12.7787 38.5934 12.832C38.8708 12.8747 39.0841 12.9173 39.2334 12.96C39.3934 13.0027 39.4734 13.024 39.4734 13.024L39.2014 14.432C39.2014 14.432 39.1161 14.416 38.9454 14.384C38.7748 14.352 38.5508 14.3147 38.2734 14.272C37.9961 14.2293 37.6868 14.1973 37.3454 14.176C37.0148 14.144 36.6841 14.128 36.3534 14.128C36.1081 14.128 35.9108 14.144 35.7614 14.176C35.6228 14.208 35.5001 14.256 35.3934 14.32C35.2761 14.384 35.1641 14.5173 35.0574 14.72C34.9508 14.912 34.8974 15.184 34.8974 15.536C34.8974 15.9093 34.9988 16.2187 35.2014 16.464C35.4041 16.6987 35.6708 16.9013 36.0014 17.072C36.3321 17.232 36.6841 17.392 37.0574 17.552C37.3881 17.7013 37.7188 17.8613 38.0494 18.032C38.3908 18.192 38.7001 18.3947 38.9774 18.64C39.2548 18.8853 39.4788 19.1893 39.6494 19.552C39.8201 19.9147 39.9054 20.368 39.9054 20.912C39.9054 21.5733 39.7561 22.1547 39.4574 22.656C39.1588 23.1467 38.7428 23.5307 38.2094 23.808C37.6761 24.0853 37.0628 24.224 36.3694 24.224ZM45.6862 24.224C44.9182 24.224 44.2355 24.0693 43.6382 23.76C43.0515 23.44 42.5929 22.9173 42.2622 22.192C41.9422 21.4667 41.7822 20.5067 41.7822 19.312C41.7822 18.064 41.9529 17.088 42.2942 16.384C42.6462 15.68 43.1102 15.1787 43.6862 14.88C44.2729 14.5813 44.9289 14.432 45.6542 14.432C46.3902 14.432 47.0142 14.576 47.5262 14.864C48.0382 15.1413 48.4275 15.6053 48.6942 16.256C48.9715 16.896 49.1102 17.76 49.1102 18.848V19.952H42.7582L43.5422 19.68C43.5102 20.288 43.5262 20.784 43.5902 21.168C43.6542 21.552 43.7395 21.8453 43.8462 22.048C43.9635 22.24 44.0649 22.3787 44.1502 22.464C44.2889 22.5813 44.4595 22.672 44.6622 22.736C44.8649 22.8 45.1102 22.832 45.3982 22.832C45.7075 22.832 46.0169 22.8053 46.3262 22.752C46.6462 22.6987 46.9449 22.6347 47.2222 22.56C47.4995 22.4853 47.7449 22.416 47.9582 22.352C48.1822 22.2773 48.3475 22.224 48.4542 22.192L48.8862 23.488C48.7902 23.5307 48.5875 23.616 48.2782 23.744C47.9689 23.8613 47.5902 23.968 47.1422 24.064C46.7049 24.1707 46.2195 24.224 45.6862 24.224ZM43.5422 19.184L42.7742 18.688L48.1662 18.576L47.3982 19.104C47.4089 18.4213 47.3929 17.84 47.3502 17.36C47.3182 16.88 47.2222 16.5173 47.0622 16.272C46.9875 16.1653 46.8649 16.064 46.6942 15.968C46.5235 15.872 46.2035 15.824 45.7342 15.824C45.2222 15.824 44.8382 15.8773 44.5822 15.984C44.3369 16.0907 44.1502 16.2293 44.0222 16.4C43.6595 16.8587 43.4995 17.7867 43.5422 19.184ZM53.4943 24.208C53.0036 24.208 52.561 24.0907 52.1663 23.856C51.7823 23.6213 51.4783 23.2853 51.2543 22.848C51.0303 22.4 50.9183 21.856 50.9183 21.216C50.9183 20.448 51.0783 19.8507 51.3983 19.424C51.7183 18.9867 52.1663 18.6773 52.7423 18.496C53.329 18.304 54.0063 18.208 54.7743 18.208H56.3263C56.3263 17.696 56.3103 17.2747 56.2783 16.944C56.2463 16.6027 56.1716 16.352 56.0543 16.192C55.969 16.064 55.841 15.9787 55.6703 15.936C55.4996 15.8827 55.2916 15.856 55.0463 15.856C54.6303 15.856 54.2196 15.8933 53.8143 15.968C53.4196 16.0427 53.0516 16.1333 52.7103 16.24C52.3796 16.336 52.113 16.4213 51.9103 16.496C51.7183 16.5707 51.6223 16.608 51.6223 16.608L51.1423 15.344C51.1423 15.344 51.2436 15.3013 51.4463 15.216C51.6596 15.12 51.9423 15.0133 52.2943 14.896C52.6463 14.7787 53.041 14.6773 53.4783 14.592C53.9156 14.496 54.3743 14.448 54.8543 14.448C55.633 14.448 56.2516 14.592 56.7103 14.88C57.169 15.1573 57.4996 15.552 57.7023 16.064C57.905 16.576 58.0063 17.184 58.0063 17.888V24H56.9343L56.6943 23.008H56.5983C56.5236 23.0613 56.3903 23.152 56.1983 23.28C56.0063 23.408 55.7716 23.5467 55.4943 23.696C55.217 23.8347 54.9076 23.952 54.5663 24.048C54.225 24.1547 53.8676 24.208 53.4943 24.208ZM53.8783 22.784C54.2303 22.784 54.5716 22.7307 54.9023 22.624C55.2436 22.5067 55.5423 22.3893 55.7983 22.272C56.0543 22.144 56.2303 22.048 56.3263 21.984V19.616C56.2303 19.6053 56.0436 19.5893 55.7663 19.568C55.4996 19.536 55.1476 19.52 54.7103 19.52C53.8143 19.52 53.2543 19.616 53.0303 19.808C52.913 19.904 52.817 20.0693 52.7423 20.304C52.6783 20.5387 52.6463 20.832 52.6463 21.184C52.6463 21.7493 52.7423 22.16 52.9343 22.416C53.1263 22.6613 53.441 22.784 53.8783 22.784ZM60.9337 24V14.656H61.9897L62.2137 15.616H62.3097C62.3097 15.616 62.3897 15.5573 62.5497 15.44C62.7097 15.3227 62.923 15.1893 63.1897 15.04C63.4564 14.8907 63.739 14.7573 64.0377 14.64C64.3364 14.512 64.6244 14.448 64.9017 14.448C65.1257 14.448 65.307 14.4693 65.4457 14.512C65.595 14.544 65.6697 14.56 65.6697 14.56L65.5417 16.096C65.5417 16.096 65.4617 16.0907 65.3017 16.08C65.1524 16.0693 65.003 16.064 64.8537 16.064C64.5657 16.064 64.2777 16.1013 63.9897 16.176C63.7017 16.2507 63.435 16.3467 63.1897 16.464C62.955 16.5813 62.763 16.6933 62.6137 16.8V24H60.9337ZM70.6218 24.208C69.8645 24.208 69.1925 24.0427 68.6058 23.712C68.0298 23.3813 67.5765 22.8533 67.2458 22.128C66.9258 21.4027 66.7658 20.4587 66.7658 19.296C66.7658 18.3467 66.8778 17.5573 67.1018 16.928C67.3258 16.288 67.6245 15.792 67.9978 15.44C68.3818 15.0773 68.8298 14.8213 69.3418 14.672C69.8645 14.5227 70.4138 14.448 70.9898 14.448C71.4485 14.448 71.8965 14.48 72.3338 14.544C72.7818 14.608 73.1338 14.672 73.3898 14.736L73.1978 16.08C72.9631 16.048 72.6165 16.0053 72.1578 15.952C71.6991 15.888 71.2298 15.856 70.7498 15.856C70.3445 15.856 70.0138 15.888 69.7578 15.952C69.5125 16.016 69.3258 16.1173 69.1978 16.256C68.9951 16.4693 68.8298 16.848 68.7018 17.392C68.5738 17.936 68.5098 18.592 68.5098 19.36C68.5098 20.0747 68.5631 20.6507 68.6698 21.088C68.7765 21.5253 68.8991 21.856 69.0378 22.08C69.1871 22.304 69.3258 22.464 69.4538 22.56C69.5285 22.6133 69.6351 22.672 69.7738 22.736C69.9231 22.7893 70.1258 22.816 70.3818 22.816C70.6698 22.816 70.9738 22.7787 71.2938 22.704C71.6138 22.6187 71.9125 22.528 72.1898 22.432C72.4671 22.336 72.6911 22.2507 72.8618 22.176C73.0325 22.1013 73.1178 22.064 73.1178 22.064L73.6138 23.328C73.6138 23.328 73.4911 23.4027 73.2458 23.552C73.0005 23.6907 72.6538 23.8347 72.2058 23.984C71.7578 24.1333 71.2298 24.208 70.6218 24.208ZM75.4917 24V11.92H77.1557V15.888L76.8197 15.392C77.065 15.2853 77.369 15.1573 77.7317 15.008C78.0944 14.8587 78.473 14.7307 78.8677 14.624C79.273 14.5067 79.6517 14.448 80.0037 14.448C80.633 14.448 81.1237 14.5867 81.4757 14.864C81.8277 15.1307 82.073 15.5147 82.2117 16.016C82.3504 16.5067 82.4197 17.1093 82.4197 17.824V24H80.7557V18.272C80.7557 17.728 80.7344 17.3013 80.6917 16.992C80.649 16.672 80.569 16.4373 80.4517 16.288C80.3664 16.16 80.249 16.0747 80.0997 16.032C79.961 15.9893 79.7904 15.968 79.5877 15.968C79.3637 15.968 79.113 16 78.8357 16.064C78.5584 16.128 78.2864 16.2027 78.0197 16.288C77.7637 16.3733 77.5344 16.4587 77.3317 16.544C77.129 16.6187 76.9957 16.6773 76.9317 16.72L77.1717 16.352L77.1557 24H75.4917Z" fill="#2E257D"/>
<defs>
<clipPath id="clip0_2207_10010">
<rect width="16" height="16" fill="white" transform="translate(12 11)"/>
</clipPath>
</defs>
</svg>
