<svg width="89" height="90" viewBox="0 0 89 90" fill="none" xmlns="http://www.w3.org/2000/svg">
<circle cx="44.5" cy="42.5" r="37.5" fill="#2E257D"/>
<circle cx="46.5" cy="45.5" r="35.5" fill="#7165D9"/>
<path d="M88 44C88 68.3005 68.3005 88 44 88C19.6995 88 0 68.3005 0 44C0 19.6995 19.6995 0 44 0C68.3005 0 88 19.6995 88 44ZM8.63514 44C8.63514 63.5315 24.4685 79.3649 44 79.3649C63.5315 79.3649 79.3649 63.5315 79.3649 44C79.3649 24.4685 63.5315 8.63514 44 8.63514C24.4685 8.63514 8.63514 24.4685 8.63514 44Z" fill="#948BE3"/>
<path d="M24 60L22 57L29.5 37.5L31 42.5L24 60Z" fill="#D5FD12"/>
<path d="M34 35H30.5L36.5 55.5H40.5L34 35Z" fill="#D5FD12"/>
<path d="M46.6463 40.5L42 53L39.5 48L44.5 35H49L56.5 55.5H52.5L46.6463 40.5Z" fill="#D5FD12"/>
<path d="M57.5 53L55.5 48L63.5 25L66 28L57.5 53Z" fill="#D5FD12"/>
<path d="M79.9006 62.2582C73.4076 74.7584 64.0542 81.0536 50.042 82.4934C39.9117 83.5343 35.9749 84.6419 24.7564 76.1187C28.0771 56.7959 58.1438 19.9622 77.4667 23.2829C88.2077 28.68 86.9304 48.7246 79.9006 62.2582Z" fill="#2E257D" fill-opacity="0.2"/>
<path d="M88 44C88 68.3005 68.3005 88 44 88C19.6995 88 0 68.3005 0 44C0 19.6995 19.6995 0 44 0C68.3005 0 88 19.6995 88 44ZM8.63514 44C8.63514 63.5315 24.4685 79.3649 44 79.3649C63.5315 79.3649 79.3649 63.5315 79.3649 44C79.3649 24.4685 63.5315 8.63514 44 8.63514C24.4685 8.63514 8.63514 24.4685 8.63514 44Z" fill="#DBD8F6"/>
<path fill-rule="evenodd" clip-rule="evenodd" d="M44 88C68.3005 88 88 68.3005 88 44C88 43.426 87.989 42.8547 87.9672 42.286L78.8165 50.2379C75.9452 66.3719 62.1337 78.7208 45.3262 79.3404L36.162 87.3039C38.7055 87.7613 41.3249 88 44 88ZM29.6137 85.5943L37.4739 78.7639C35.1552 78.3314 32.916 77.6725 30.7803 76.8112L23.6399 83.0161C25.5528 84.0164 27.5483 84.8801 29.6137 85.5943ZM79.329 42.3925L87.1914 35.5602C86.773 33.4066 86.1976 31.3092 85.4775 29.2802L78.3338 35.488C78.8838 37.7139 79.223 40.0229 79.329 42.3925ZM74.0807 25.3943L80.6674 19.6706C79.9938 18.6574 79.2793 17.6738 78.5263 16.722L71.9994 22.3938C72.7428 23.3558 73.4378 24.3572 74.0807 25.3943ZM18.7001 68.7101C19.5509 69.5811 20.4463 70.4083 21.3827 71.1881L14.7962 76.9117C13.8874 76.1047 13.0122 75.2606 12.1731 74.3819L18.7001 68.7101ZM7.75255 68.9496L14.3223 63.2406C10.7248 57.703 8.63514 51.0955 8.63514 44C8.63514 24.4685 24.4685 8.63514 44 8.63514C52.8723 8.63514 60.9815 11.9023 67.1901 17.2993L73.7597 11.5904C65.9261 4.39356 55.4762 0 44 0C19.6995 0 0 19.6995 0 44C0 53.2641 2.86303 61.8594 7.75255 68.9496Z" fill="#948BE3"/>
</svg>
